<?xml version="1.0" encoding="UTF-8"?>
<svg id="Layer_2" data-name="Layer 2" xmlns="http://www.w3.org/2000/svg" viewBox="0 0 338.52 295.77">
  <defs>
    <style>
      .cls-1 {
        fill: #0c1475;
        stroke-width: 0px;
      }
    </style>
  </defs>
  <g id="Layer_1-2" data-name="Layer 1">
    <g>
      <g>
        <path class="cls-1" d="M296.52,84.51l-42.72,42.72v.02l-41.97,41.99-42.56,42.54-41.99,41.99,41.99,41.99,41.99-41.99,42.56-42.54,41.97-41.99,42.72-42.75-41.99-41.99Z"/>
        <path class="cls-1" d="M211.97,0l-84.69,84.69-42.54,42.56-41.99,41.99h-.02L0,211.95l41.99,41.99,42.75-42.7,41.99-41.99,42.54-42.56,41.97-41.99,42.75-42.72L211.97,0Z"/>
      </g>
      <g>
        <path class="cls-1" d="M41.99,84.51L0,126.5l42.72,42.75h.02l41.99,41.99,84.53,84.53,41.99-41.99L41.99,84.51Z"/>
        <path class="cls-1" d="M295.79,169.25l-41.99-41.99-42.56-42.56-41.97-41.99L126.55,0l-41.99,41.97,211.97,211.97,41.99-41.99-42.72-42.7Z"/>
      </g>
    </g>
  </g>
</svg>